<svg id="visual" viewBox="0 0 900 600" width="900" height="600" xmlns="http://www.w3.org/2000/svg" xmlns:xlink="http://www.w3.org/1999/xlink" version="1.1"><rect x="0" y="0" width="900" height="600" fill="#001220"></rect><defs><linearGradient id="grad1_0" x1="33.3%" y1="0%" x2="100%" y2="100%"><stop offset="20%" stop-color="#fbae3c" stop-opacity="1"></stop><stop offset="80%" stop-color="#fbae3c" stop-opacity="1"></stop></linearGradient></defs><defs><linearGradient id="grad1_1" x1="33.3%" y1="0%" x2="100%" y2="100%"><stop offset="20%" stop-color="#fbae3c" stop-opacity="1"></stop><stop offset="80%" stop-color="#eb7458" stop-opacity="1"></stop></linearGradient></defs><defs><linearGradient id="grad1_2" x1="33.3%" y1="0%" x2="100%" y2="100%"><stop offset="20%" stop-color="#b84e6c" stop-opacity="1"></stop><stop offset="80%" stop-color="#eb7458" stop-opacity="1"></stop></linearGradient></defs><defs><linearGradient id="grad1_3" x1="33.3%" y1="0%" x2="100%" y2="100%"><stop offset="20%" stop-color="#b84e6c" stop-opacity="1"></stop><stop offset="80%" stop-color="#713c69" stop-opacity="1"></stop></linearGradient></defs><defs><linearGradient id="grad1_4" x1="33.3%" y1="0%" x2="100%" y2="100%"><stop offset="20%" stop-color="#2d2b4c" stop-opacity="1"></stop><stop offset="80%" stop-color="#713c69" stop-opacity="1"></stop></linearGradient></defs><defs><linearGradient id="grad1_5" x1="33.3%" y1="0%" x2="100%" y2="100%"><stop offset="20%" stop-color="#2d2b4c" stop-opacity="1"></stop><stop offset="80%" stop-color="#001220" stop-opacity="1"></stop></linearGradient></defs><defs><linearGradient id="grad2_0" x1="0%" y1="0%" x2="66.7%" y2="100%"><stop offset="20%" stop-color="#fbae3c" stop-opacity="1"></stop><stop offset="80%" stop-color="#fbae3c" stop-opacity="1"></stop></linearGradient></defs><defs><linearGradient id="grad2_1" x1="0%" y1="0%" x2="66.7%" y2="100%"><stop offset="20%" stop-color="#eb7458" stop-opacity="1"></stop><stop offset="80%" stop-color="#fbae3c" stop-opacity="1"></stop></linearGradient></defs><defs><linearGradient id="grad2_2" x1="0%" y1="0%" x2="66.7%" y2="100%"><stop offset="20%" stop-color="#eb7458" stop-opacity="1"></stop><stop offset="80%" stop-color="#b84e6c" stop-opacity="1"></stop></linearGradient></defs><defs><linearGradient id="grad2_3" x1="0%" y1="0%" x2="66.7%" y2="100%"><stop offset="20%" stop-color="#713c69" stop-opacity="1"></stop><stop offset="80%" stop-color="#b84e6c" stop-opacity="1"></stop></linearGradient></defs><defs><linearGradient id="grad2_4" x1="0%" y1="0%" x2="66.7%" y2="100%"><stop offset="20%" stop-color="#713c69" stop-opacity="1"></stop><stop offset="80%" stop-color="#2d2b4c" stop-opacity="1"></stop></linearGradient></defs><defs><linearGradient id="grad2_5" x1="0%" y1="0%" x2="66.7%" y2="100%"><stop offset="20%" stop-color="#001220" stop-opacity="1"></stop><stop offset="80%" stop-color="#2d2b4c" stop-opacity="1"></stop></linearGradient></defs><g transform="translate(900, 0)"><path d="M0 270.4C-33.6 260.4 -67.3 250.3 -98 236.5C-128.7 222.7 -156.4 205.1 -183.1 183.1C-209.8 161.2 -235.5 134.7 -249.8 103.5C-264.2 72.2 -267.3 36.1 -270.4 0L0 0Z" fill="#131f37"></path><path d="M0 225.3C-28 217 -56.1 208.6 -81.6 197.1C-107.2 185.6 -130.4 170.9 -152.6 152.6C-174.9 134.3 -196.2 112.3 -208.2 86.2C-220.2 60.2 -222.8 30.1 -225.3 0L0 0Z" fill="#4d345e"></path><path d="M0 180.3C-22.4 173.6 -44.8 166.9 -65.3 157.7C-85.8 148.5 -104.3 136.8 -122.1 122.1C-139.9 107.4 -157 89.8 -166.6 69C-176.1 48.1 -178.2 24.1 -180.3 0L0 0Z" fill="#96446e"></path><path d="M0 135.2C-16.8 130.2 -33.6 125.2 -49 118.3C-64.3 111.4 -78.2 102.6 -91.6 91.6C-104.9 80.6 -117.7 67.4 -124.9 51.7C-132.1 36.1 -133.7 18.1 -135.2 0L0 0Z" fill="#d55e64"></path><path d="M0 90.1C-11.2 86.8 -22.4 83.4 -32.7 78.8C-42.9 74.2 -52.1 68.4 -61 61C-69.9 53.7 -78.5 44.9 -83.3 34.5C-88.1 24.1 -89.1 12 -90.1 0L0 0Z" fill="#f88f4a"></path><path d="M0 45.1C-5.6 43.4 -11.2 41.7 -16.3 39.4C-21.4 37.1 -26.1 34.2 -30.5 30.5C-35 26.9 -39.2 22.5 -41.6 17.2C-44 12 -44.6 6 -45.1 0L0 0Z" fill="#fbae3c"></path></g><g transform="translate(0, 600)"><path d="M0 -270.4C37.5 -268.7 75 -266.9 103.5 -249.8C131.9 -232.8 151.3 -200.4 173.9 -173.9C196.6 -147.5 222.7 -127.1 239.3 -99.1C255.9 -71.1 263.2 -35.6 270.4 0L0 0Z" fill="#131f37"></path><path d="M0 -225.3C31.3 -223.9 62.5 -222.4 86.2 -208.2C109.9 -194 126.1 -167 145 -145C163.9 -122.9 185.5 -105.9 199.4 -82.6C213.3 -59.3 219.3 -29.6 225.3 0L0 0Z" fill="#4d345e"></path><path d="M0 -180.3C25 -179.1 50 -177.9 69 -166.6C87.9 -155.2 100.8 -133.6 116 -116C131.1 -98.4 148.4 -84.7 159.5 -66.1C170.6 -47.4 175.4 -23.7 180.3 0L0 0Z" fill="#96446e"></path><path d="M0 -135.2C18.8 -134.3 37.5 -133.5 51.7 -124.9C66 -116.4 75.6 -100.2 87 -87C98.3 -73.8 111.3 -63.6 119.6 -49.6C128 -35.6 131.6 -17.8 135.2 0L0 0Z" fill="#d55e64"></path><path d="M0 -90.1C12.5 -89.6 25 -89 34.5 -83.3C44 -77.6 50.4 -66.8 58 -58C65.5 -49.2 74.2 -42.4 79.8 -33C85.3 -23.7 87.7 -11.9 90.1 0L0 0Z" fill="#f88f4a"></path><path d="M0 -45.1C6.3 -44.8 12.5 -44.5 17.2 -41.6C22 -38.8 25.2 -33.4 29 -29C32.8 -24.6 37.1 -21.2 39.9 -16.5C42.7 -11.9 43.9 -5.9 45.1 0L0 0Z" fill="#fbae3c"></path></g></svg>